<svg width="108" height="108" viewBox="0 0 108 108" fill="none" xmlns="http://www.w3.org/2000/svg">
<g clip-path="url(#clip0_21126_754)">
<path fill-rule="evenodd" clip-rule="evenodd" d="M0 10.8C0 4.83533 4.83532 0 10.8 0H97.2C103.165 0 108 4.83532 108 10.8V97.2C108 103.165 103.165 108 97.2 108H10.8C4.83533 108 0 103.165 0 97.2V10.8ZM5.625 11.025C5.625 8.04266 8.04266 5.625 11.025 5.625H96.975C99.9573 5.625 102.375 8.04266 102.375 11.025V96.975C102.375 99.9573 99.9573 102.375 96.975 102.375H11.025C8.04266 102.375 5.625 99.9573 5.625 96.975V11.025Z" fill="#292C52"/>
<path d="M33.6326 11.6812H12.823C11.7273 11.6812 10.839 12.5694 10.839 13.6652V14.7264C10.839 15.8222 11.7273 16.7105 12.823 16.7105H33.6326C34.7283 16.7105 35.6166 15.8222 35.6166 14.7264V13.6652C35.6166 12.5694 34.7283 11.6812 33.6326 11.6812Z" fill="white"/>
<path d="M43.1434 16.6817C44.4717 16.6817 45.5485 15.6049 45.5485 14.2766C45.5485 12.9483 44.4717 11.8715 43.1434 11.8715C41.8151 11.8715 40.7383 12.9483 40.7383 14.2766C40.7383 15.6049 41.8151 16.6817 43.1434 16.6817Z" fill="white"/>
<path d="M69.8359 69.2994C71.5239 69.5724 73.1023 69.3474 74.5711 68.6246C76.0322 67.9055 77.0166 66.8808 77.5241 65.5504C78.074 64.1162 77.7164 62.8993 76.4513 61.8995C75.8284 61.4074 74.7672 60.9652 73.2676 60.573C69.5302 59.5925 66.5368 58.6793 64.2875 57.8334C61.5229 56.7952 59.5619 54.9169 58.4045 52.1984C57.3394 49.6914 57.4375 47.1844 58.6987 44.6775C59.7484 42.5896 61.3037 41.1419 63.3646 40.3344C67.4289 38.7464 71.5893 38.483 75.8457 39.5443C80.8213 40.7862 83.5667 43.9507 84.0819 49.0378C84.0918 49.1197 84.0721 49.2023 84.0265 49.2702C83.9809 49.3381 83.9124 49.3866 83.8339 49.4069C82.1497 49.8529 80.2118 50.049 78.0201 49.9952C77.3319 49.976 76.8993 49.6357 76.7224 48.9743C76.1803 46.9749 74.9921 45.7733 73.158 45.3696C72.2275 45.1658 71.0682 45.0889 69.6802 45.1389C68.8919 45.1658 68.1133 45.285 67.3443 45.4965C66.5291 45.7195 65.8774 46.1155 65.3891 46.6846C64.3125 47.9342 64.2875 49.1281 65.3141 50.2663C65.8486 50.8584 66.7541 51.341 68.0306 51.7139C71.1259 52.6175 74.2193 53.5288 77.3107 54.4478C81.3327 55.6436 83.8262 57.9776 84.7913 61.4497C85.6026 64.3796 85.2623 67.1519 83.7704 69.7666C82.2132 72.4966 79.6716 74.2268 76.1457 74.9574C73.5656 75.4919 70.7818 75.5553 67.7942 75.1477C61.5959 74.298 57.8816 70.8239 56.6512 64.7257C56.4243 63.6067 56.7627 63.0531 57.6662 63.0646C58.4199 63.0723 58.8217 63.0723 58.8717 63.0646C60.2405 62.9185 61.6132 62.8089 62.9898 62.7358C63.0649 62.733 63.1387 62.7569 63.1979 62.8034C63.257 62.8499 63.2977 62.9159 63.3127 62.9896C64.0164 66.604 66.1908 68.7072 69.8359 69.2994Z" fill="#111417"/>
<path d="M28.8859 52.6313L28.8512 74.3867C28.8512 74.4617 28.8365 74.5359 28.8078 74.6052C28.7791 74.6745 28.737 74.7374 28.684 74.7904C28.631 74.8434 28.568 74.8855 28.4988 74.9142C28.4295 74.9429 28.3552 74.9577 28.2803 74.9577H22.5242C22.4049 74.9577 22.2904 74.9103 22.2061 74.8259C22.1217 74.7415 22.0743 74.6271 22.0743 74.5078L21.9647 39.9483C21.9645 39.8713 21.9939 39.7969 22.0471 39.7394C22.1004 39.6819 22.1738 39.6454 22.2531 39.6368C24.4986 39.3946 26.7461 39.3831 28.9954 39.6022C29.0851 39.6112 29.1712 39.6403 29.2472 39.6873C29.3232 39.7343 29.3871 39.7979 29.4338 39.8733L43.3799 62.3554C43.5952 62.7015 43.7028 62.6727 43.7028 62.2689L43.599 39.9598C43.5995 39.8787 43.6284 39.8006 43.6804 39.7401C43.7324 39.6796 43.8039 39.6409 43.8816 39.6311C45.9541 39.3619 48.0228 39.3831 50.0876 39.6945C50.1676 39.7069 50.2406 39.7473 50.2934 39.8086C50.3463 39.8699 50.3755 39.9481 50.376 40.029L50.5144 74.4155C50.5139 74.4966 50.485 74.5747 50.433 74.6352C50.381 74.6957 50.3095 74.7345 50.2318 74.7443C48.2823 74.9904 46.0983 75.048 43.6798 74.9173C43.509 74.9082 43.3434 74.8583 43.1977 74.7719C43.0519 74.6854 42.9303 74.565 42.8435 74.4213L29.3357 52.5044C29.0358 52.016 28.8859 52.0583 28.8859 52.6313Z" fill="#111417"/>
</g>
<defs>
<clipPath id="clip0_21126_754">
<rect width="108" height="108" rx="5" fill="white"/>
</clipPath>
</defs>
</svg>
