<svg width="108" height="109" viewBox="0 0 108 109" fill="none" xmlns="http://www.w3.org/2000/svg">
<path d="M38.4416 22.6041H22.5454C21.7083 22.6041 21.0298 23.2827 21.0298 24.1197V24.9304C21.0298 25.7674 21.7083 26.446 22.5454 26.446H38.4416C39.2786 26.446 39.9572 25.7674 39.9572 24.9304V24.1197C39.9572 23.2827 39.2786 22.6041 38.4416 22.6041Z" fill="#111417"/>
<path d="M45.7067 26.424C46.7214 26.424 47.544 25.6015 47.544 24.5868C47.544 23.5721 46.7214 22.7496 45.7067 22.7496C44.6921 22.7496 43.8695 23.5721 43.8695 24.5868C43.8695 25.6015 44.6921 26.424 45.7067 26.424Z" fill="#111417"/>
<path d="M66.0968 66.6182C67.3863 66.8267 68.592 66.6549 69.714 66.1027C70.8301 65.5534 71.5821 64.7707 71.9698 63.7544C72.3898 62.6588 72.1166 61.7292 71.1503 60.9655C70.6745 60.5896 69.8638 60.2518 68.7183 59.9522C65.8633 59.2032 63.5767 58.5056 61.8584 57.8594C59.7466 57.0664 58.2486 55.6316 57.3645 53.555C56.5509 51.6399 56.6258 49.7248 57.5892 47.8098C58.3911 46.2149 59.5792 45.109 61.1535 44.4922C64.2581 43.2791 67.4362 43.0779 70.6877 43.8886C74.4884 44.8373 76.5856 47.2546 76.9792 51.1406C76.9868 51.2031 76.9717 51.2662 76.9369 51.3181C76.902 51.37 76.8497 51.4071 76.7897 51.4225C75.5032 51.7633 74.0229 51.9131 72.3487 51.8719C71.8229 51.8572 71.4925 51.5973 71.3574 51.0921C70.9432 49.5648 70.0356 48.6469 68.6346 48.3385C67.9238 48.1828 67.0382 48.1241 65.9779 48.1622C65.3757 48.1828 64.781 48.2738 64.1935 48.4354C63.5708 48.6058 63.073 48.9083 62.7 49.343C61.8775 50.2976 61.8584 51.2096 62.6427 52.079C63.0509 52.5313 63.7427 52.9 64.7178 53.1849C67.0823 53.8751 69.4452 54.5712 71.8068 55.2732C74.8791 56.1867 76.7839 57.9696 77.5211 60.6219C78.1409 62.86 77.8809 64.9778 76.7413 66.9751C75.5517 69.0605 73.6102 70.3822 70.9168 70.9403C68.9459 71.3486 66.8194 71.397 64.5372 71.0857C59.8024 70.4366 56.965 67.7828 56.0251 63.1244C55.8518 62.2696 56.1103 61.8467 56.8006 61.8555C57.3763 61.8614 57.6832 61.8614 57.7214 61.8555C58.767 61.7439 59.8156 61.6602 60.8671 61.6044C60.9246 61.6022 60.9809 61.6205 61.0261 61.656C61.0713 61.6915 61.1024 61.7419 61.1139 61.7982C61.6514 64.5592 63.3124 66.1659 66.0968 66.6182Z" fill="#111417"/>
<path d="M34.8155 53.8856L34.7891 70.5043C34.7891 70.5616 34.7778 70.6183 34.7559 70.6712C34.734 70.7241 34.7019 70.7722 34.6614 70.8127C34.6208 70.8532 34.5728 70.8854 34.5198 70.9073C34.4669 70.9292 34.4102 70.9405 34.3529 70.9405H29.9559C29.8648 70.9405 29.7774 70.9043 29.7129 70.8398C29.6485 70.7754 29.6123 70.688 29.6123 70.5968L29.5286 44.1972C29.5284 44.1384 29.5508 44.0816 29.5915 44.0376C29.6322 43.9937 29.6882 43.9658 29.7489 43.9593C31.4642 43.7742 33.181 43.7654 34.8992 43.9329C34.9677 43.9397 35.0335 43.9619 35.0916 43.9978C35.1496 44.0337 35.1984 44.0824 35.2341 44.1399L45.8873 61.3138C46.0518 61.5781 46.1341 61.5561 46.1341 61.2477L46.0548 44.206C46.0551 44.144 46.0772 44.0844 46.1169 44.0382C46.1566 43.992 46.2113 43.9624 46.2706 43.9549C47.8538 43.7493 49.434 43.7654 51.0113 44.0034C51.0724 44.0128 51.1282 44.0437 51.1685 44.0905C51.2089 44.1374 51.2313 44.1971 51.2316 44.2589L51.3373 70.5263C51.337 70.5883 51.3149 70.648 51.2752 70.6942C51.2355 70.7404 51.1808 70.77 51.1214 70.7775C49.6323 70.9655 47.964 71.0095 46.1164 70.9096C45.986 70.9027 45.8595 70.8646 45.7482 70.7986C45.6368 70.7325 45.5439 70.6406 45.4776 70.5308L35.1592 53.7887C34.9301 53.4156 34.8155 53.4479 34.8155 53.8856Z" fill="#111417"/>
</svg>
