<svg width="108" height="108" viewBox="0 0 108 108" fill="none" xmlns="http://www.w3.org/2000/svg">
<path d="M8.55 10.35C9.5441 10.35 10.35 9.54411 10.35 8.55C10.35 7.55589 9.5441 6.75 8.55 6.75C7.5559 6.75 6.75 7.55589 6.75 8.55C6.75 9.54411 7.5559 10.35 8.55 10.35Z" fill="#111417"/>
<path d="M10.35 99.45C10.35 100.444 9.5441 101.25 8.55 101.25C7.5559 101.25 6.75 100.444 6.75 99.45C6.75 98.4559 7.5559 97.65 8.55 97.65C9.5441 97.65 10.35 98.4559 10.35 99.45Z" fill="#111417"/>
<path d="M101.25 99.45C101.25 100.444 100.444 101.25 99.45 101.25C98.4559 101.25 97.65 100.444 97.65 99.45C97.65 98.4559 98.4559 97.65 99.45 97.65C100.444 97.65 101.25 98.4559 101.25 99.45Z" fill="#111417"/>
<path d="M101.25 8.55C101.25 9.54411 100.444 10.35 99.45 10.35C98.4559 10.35 97.65 9.54411 97.65 8.55C97.65 7.55589 98.4559 6.75 99.45 6.75C100.444 6.75 101.25 7.55589 101.25 8.55Z" fill="#111417"/>
<path d="M8.55 48.6C7.5559 48.6 6.75 49.4059 6.75 50.4V57.6C6.75 58.5941 7.5559 59.4 8.55 59.4C9.5441 59.4 10.35 58.5941 10.35 57.6V50.4C10.35 49.4059 9.5441 48.6 8.55 48.6Z" fill="#111417"/>
<path d="M97.65 50.4C97.65 49.4059 98.4559 48.6 99.45 48.6C100.444 48.6 101.25 49.4059 101.25 50.4V57.6C101.25 58.5941 100.444 59.4 99.45 59.4C98.4559 59.4 97.65 58.5941 97.65 57.6V50.4Z" fill="#111417"/>
<path d="M8.1 3.6H99.9C102.385 3.6 104.4 5.61472 104.4 8.1V99.9C104.4 102.385 102.385 104.4 99.9 104.4H59.4V108H99.9C104.374 108 108 104.374 108 99.9V8.1C108 3.62649 104.374 0 99.9 0H8.1C3.62649 0 0 3.62649 0 8.1V99.9C0 104.374 3.62649 108 8.1 108H48.6V104.4H8.1C5.61472 104.4 3.6 102.385 3.6 99.9V8.1C3.6 5.61472 5.61472 3.6 8.1 3.6Z" fill="#292C52"/>
<path d="M56.7 33.3C56.7 32.803 57.1029 32.4 57.6 32.4H61.2C61.697 32.4 62.1 32.803 62.1 33.3V35.1C62.1 35.5971 61.697 36 61.2 36H57.6C57.1029 36 56.7 35.5971 56.7 35.1V33.3Z" fill="#5571F9"/>
<path d="M36 33.3C35.5029 33.3 35.1 33.703 35.1 34.2V36C35.1 36.4971 35.5029 36.9 36 36.9H39.6C40.097 36.9 40.5 36.4971 40.5 36V34.2C40.5 33.703 40.097 33.3 39.6 33.3H36Z" fill="#5571F9"/>
<path d="M46.8 34.2C46.3029 34.2 45.9 34.603 45.9 35.1V36.9C45.9 37.3971 46.3029 37.8 46.8 37.8H50.4C50.897 37.8 51.3 37.3971 51.3 36.9V35.1C51.3 34.603 50.897 34.2 50.4 34.2H46.8Z" fill="#5571F9"/>
<path d="M68.4 33.3C67.9029 33.3 67.5 33.703 67.5 34.2V36C67.5 36.4971 67.9029 36.9 68.4 36.9H72C72.497 36.9 72.9 36.4971 72.9 36V34.2C72.9 33.703 72.497 33.3 72 33.3H68.4Z" fill="#5571F9"/>
<path fill-rule="evenodd" clip-rule="evenodd" d="M35.1 34.2C34.6029 34.2 34.2 34.6029 34.2 35.1V41.4H33.75C32.7559 41.4 31.95 42.2058 31.95 43.2C31.95 44.1941 32.7559 45 33.75 45H75.15C76.1441 45 76.95 44.1941 76.95 43.2C76.95 42.2058 76.1441 41.4 75.15 41.4H73.8V35.1C73.8 34.6029 73.3971 34.2 72.9 34.2H67.5C67.0029 34.2 66.6 34.6029 66.6 35.1V41.4H63V35.1C63 34.6029 62.5971 34.2 62.1 34.2H56.7C56.2029 34.2 55.8 34.6029 55.8 35.1V41.4H52.2V35.1C52.2 34.6029 51.7971 34.2 51.3 34.2H45.9C45.4029 34.2 45 34.6029 45 35.1V41.4H41.4V35.1C41.4 34.6029 40.9971 34.2 40.5 34.2H35.1ZM39.6 37.8C39.6 38.7941 38.7941 39.6 37.8 39.6C36.8059 39.6 36 38.7941 36 37.8C36 36.8058 36.8059 36 37.8 36C38.7941 36 39.6 36.8058 39.6 37.8ZM48.6 39.6C49.5941 39.6 50.4 38.7941 50.4 37.8C50.4 36.8058 49.5941 36 48.6 36C47.6059 36 46.8 36.8058 46.8 37.8C46.8 38.7941 47.6059 39.6 48.6 39.6ZM61.2 37.8C61.2 38.7941 60.3941 39.6 59.4 39.6C58.4059 39.6 57.6 38.7941 57.6 37.8C57.6 36.8058 58.4059 36 59.4 36C60.3941 36 61.2 36.8058 61.2 37.8ZM70.2 39.6C71.1941 39.6 72 38.7941 72 37.8C72 36.8058 71.1941 36 70.2 36C69.2059 36 68.4 36.8058 68.4 37.8C68.4 38.7941 69.2059 39.6 70.2 39.6Z" fill="#292C52"/>
<path fill-rule="evenodd" clip-rule="evenodd" d="M27 48.6V75.6C27 82.3098 31.5892 87.9477 37.8 89.5463V84.5999C37.8 83.6058 38.6059 82.7999 39.6 82.7999C40.5941 82.7999 41.4 83.6058 41.4 84.5999L41.4 89.9999H45V84.5999C45 83.6058 45.8059 82.7999 46.8 82.7999C47.7941 82.7999 48.6 83.6058 48.6 84.5999V89.9999H52.2V84.5999C52.2 83.6058 53.0059 82.7999 54 82.7999C54.9941 82.7999 55.8 83.6058 55.8 84.5999V89.9999H59.4V84.5999C59.4 83.6058 60.2059 82.7999 61.2 82.7999C62.1941 82.7999 63 83.6058 63 84.5999V89.9999H66.6V84.5999C66.6 83.6058 67.4059 82.7999 68.4 82.7999C69.3941 82.7999 70.2 83.6058 70.2 84.5999V89.5463C76.4108 87.9477 81 82.3098 81 75.6V48.6H66.6V61.2C66.6 62.1941 65.7941 63 64.8 63C63.8059 63 63 62.1941 63 61.2V48.6H55.8V54H56.7C57.6941 54 58.5 54.8058 58.5 55.8C58.5 56.7941 57.6941 57.6 56.7 57.6H51.3C50.3059 57.6 49.5 56.7941 49.5 55.8C49.5 54.8058 50.3059 54 51.3 54H52.2V48.6H45V55.8C45 56.7941 44.1941 57.6 43.2 57.6C42.2059 57.6 41.4 56.7941 41.4 55.8V48.6H27ZM54 61.2C53.0059 61.2 52.2 62.0058 52.2 63V77.4C52.2 78.3941 53.0059 79.1999 54 79.1999C54.9941 79.1999 55.8 78.3941 55.8 77.4V63C55.8 62.0058 54.9941 61.2 54 61.2ZM45 64.8H45.9C46.8941 64.8 47.7 63.9941 47.7 63C47.7 62.0058 46.8941 61.2 45.9 61.2H40.5C39.5059 61.2 38.7 62.0058 38.7 63C38.7 63.9941 39.5059 64.8 40.5 64.8H41.4V77.4C41.4 78.3941 42.2059 79.1999 43.2 79.1999C44.1941 79.1999 45 78.3941 45 77.4V64.8ZM67.5 70.2H66.6V77.4C66.6 78.3941 65.7941 79.1999 64.8 79.1999C63.8059 79.1999 63 78.3941 63 77.4V70.2H62.1C61.1059 70.2 60.3 69.3941 60.3 68.4C60.3 67.4058 61.1059 66.6 62.1 66.6H67.5C68.4941 66.6 69.3 67.4058 69.3 68.4C69.3 69.3941 68.4941 70.2 67.5 70.2Z" fill="#292C52"/>
</svg>
