<svg xmlns="http://www.w3.org/2000/svg" fill="none" viewBox="0 0 512 512">
  <path fill="#292C52" fill-rule="evenodd" d="M51 0C23 0 0 23 0 51v410c0 28 23 51 51 51h410c28 0 51-23 51-51V51c0-28-23-51-51-51H51Zm108 55H61c-5 0-10 5-10 10v5c0 5 5 9 10 9h98c6 0 10-4 10-9v-5c0-5-4-10-10-10Zm46 24a11 11 0 1 0 0-23 11 11 0 0 0 0 23Z" clip-rule="evenodd"/>
  <path fill="#5571F9" fill-rule="evenodd" d="M52 27c-14 0-25 11-25 25v408c0 14 11 25 25 25h408c14 0 25-11 25-25V52c0-14-11-25-25-25H52Zm107 28H61c-5 0-10 5-10 10v5c0 5 5 9 10 9h98c6 0 10-4 10-9v-5c0-5-4-10-10-10Zm46 24a11 11 0 1 0 0-23 11 11 0 0 0 0 23Z" clip-rule="evenodd"/>
  <path fill="#111417" d="M331 329c8 1 16 0 23-4 6-3 11-8 14-14 2-7 0-13-6-18l-15-6c-17-4-32-9-42-13-13-5-23-14-28-27-5-11-5-23 1-35 5-10 13-17 22-21 20-7 39-9 60-4 23 6 36 21 39 45l-1 2h-1c-8 2-17 3-27 3-3 0-5-2-6-5-3-9-8-15-17-17a67 67 0 0 0-28 1c-4 1-7 3-9 5-5 6-5 12 0 17 2 3 6 5 13 7l44 13c19 6 30 17 35 33a51 51 0 0 1-41 64c-12 3-25 3-40 1-29-4-47-20-52-49-2-5 0-8 4-8a119 119 0 0 0 26-2 1 1 0 0 1 1 2c3 17 14 27 31 30Zm-194-79v103a3 3 0 0 1-3 2h-27a2 2 0 0 1-2-2l-1-164 1-1a156 156 0 0 1 34 0l1 1 66 107c1 1 1 1 1-1V188h1a105 105 0 0 1 30 1l1 1v164h-1a174 174 0 0 1-33 0l-2-1-64-104c-1-2-2-2-2 1Z"/>
</svg>
