<svg xmlns="http://www.w3.org/2000/svg" fill="none" viewBox="0 0 512 512">
  <g clip-path="url(#a)">
    <path fill="#5571F9" fill-rule="evenodd" d="M512 0H0v512h512V0ZM98.1333 128C79.282 128 64 143.282 64 162.133v187.734C64 368.718 79.282 384 98.1333 384H413.867C432.718 384 448 368.718 448 349.867V162.133C448 143.282 432.718 128 413.867 128H98.1333Z" clip-rule="evenodd"/>
    <path fill="#111417" d="M40.5333 49.0667c4.7128 0 8.5334-3.8205 8.5334-8.5334 0-4.7128-3.8206-8.5333-8.5334-8.5333C35.8206 32 32 35.8205 32 40.5333c0 4.7129 3.8206 8.5334 8.5333 8.5334Zm8.5334 422.4003c0 4.712-3.8206 8.533-8.5334 8.533C35.8206 480 32 476.179 32 471.467c0-4.713 3.8206-8.534 8.5333-8.534 4.7128 0 8.5334 3.821 8.5334 8.534Zm430.9333 0c0 4.712-3.821 8.533-8.533 8.533-4.713 0-8.534-3.821-8.534-8.533 0-4.713 3.821-8.534 8.534-8.534 4.712 0 8.533 3.821 8.533 8.534Zm0-430.9337c0 4.7129-3.821 8.5334-8.533 8.5334-4.713 0-8.534-3.8205-8.534-8.5334 0-4.7128 3.821-8.5333 8.534-8.5333 4.712 0 8.533 3.8205 8.533 8.5333ZM40.5333 230.4c-4.7127 0-8.5333 3.82-8.5333 8.533v34.134c0 4.712 3.8206 8.533 8.5333 8.533 4.7128 0 8.5334-3.821 8.5334-8.533v-34.134c0-4.713-3.8206-8.533-8.5334-8.533Zm422.3997 8.533c0-4.713 3.821-8.533 8.534-8.533 4.712 0 8.533 3.82 8.533 8.533v34.134c0 4.712-3.821 8.533-8.533 8.533-4.713 0-8.534-3.821-8.534-8.533v-34.134Z"/>
    <path fill="#292C52" d="M38.4 17.0667h435.2c11.782 0 21.333 9.5512 21.333 21.3333v435.2c0 11.782-9.551 21.333-21.333 21.333h-192V512h192c21.208 0 38.4-17.192 38.4-38.4V38.4C512 17.1923 494.808 0 473.6 0H38.4C17.1923 0 0 17.1923 0 38.4v435.2C0 494.808 17.1923 512 38.4 512h192v-17.067h-192c-11.7821 0-21.3333-9.551-21.3333-21.333V38.4c0-11.7821 9.5512-21.3333 21.3333-21.3333Z"/>
    <path fill="#5571F9" d="M268.8 157.267c0-2.357 1.91-4.267 4.267-4.267h17.066c2.357 0 4.267 1.91 4.267 4.267v8.533c0 2.356-1.91 4.267-4.267 4.267h-17.066c-2.357 0-4.267-1.911-4.267-4.267v-8.533Zm-98.133 0c-2.357 0-4.267 1.91-4.267 4.266v8.534c0 2.356 1.91 4.266 4.267 4.266h17.066c2.357 0 4.267-1.91 4.267-4.266v-8.534c0-2.356-1.91-4.266-4.267-4.266h-17.066Zm51.2 4.266c-2.357 0-4.267 1.911-4.267 4.267v8.533c0 2.357 1.91 4.267 4.267 4.267h17.066c2.357 0 4.267-1.91 4.267-4.267V165.8c0-2.356-1.91-4.267-4.267-4.267h-17.066Zm102.4-4.266c-2.357 0-4.267 1.91-4.267 4.266v8.534c0 2.356 1.91 4.266 4.267 4.266h17.066c2.357 0 4.267-1.91 4.267-4.266v-8.534c0-2.356-1.91-4.266-4.267-4.266h-17.066Z"/>
    <path fill="#111417" fill-rule="evenodd" d="M166.4 161.533c-2.356 0-4.267 1.911-4.267 4.267v29.867H160c-4.713 0-8.533 3.82-8.533 8.533 0 4.713 3.82 8.533 8.533 8.533h196.267c4.713 0 8.533-3.82 8.533-8.533 0-4.713-3.82-8.533-8.533-8.533h-6.4V165.8c0-2.356-1.911-4.267-4.267-4.267H320c-2.356 0-4.267 1.911-4.267 4.267v29.867h-17.066V165.8c0-2.356-1.911-4.267-4.267-4.267h-25.6c-2.356 0-4.267 1.911-4.267 4.267v29.867h-17.066V165.8c0-2.356-1.911-4.267-4.267-4.267h-25.6c-2.356 0-4.267 1.911-4.267 4.267v29.867h-17.066V165.8c0-2.356-1.911-4.267-4.267-4.267h-25.6Zm21.333 17.067c0 4.713-3.82 8.533-8.533 8.533-4.713 0-8.533-3.82-8.533-8.533 0-4.713 3.82-8.533 8.533-8.533 4.713 0 8.533 3.82 8.533 8.533Zm42.667 8.533c4.713 0 8.533-3.82 8.533-8.533 0-4.713-3.82-8.533-8.533-8.533-4.713 0-8.533 3.82-8.533 8.533 0 4.713 3.82 8.533 8.533 8.533Zm59.733-8.533c0 4.713-3.82 8.533-8.533 8.533-4.713 0-8.533-3.82-8.533-8.533 0-4.713 3.82-8.533 8.533-8.533 4.713 0 8.533 3.82 8.533 8.533Zm42.667 8.533c4.713 0 8.533-3.82 8.533-8.533 0-4.713-3.82-8.533-8.533-8.533-4.713 0-8.533 3.82-8.533 8.533 0 4.713 3.82 8.533 8.533 8.533ZM128 229.8v128c0 31.809 21.756 58.538 51.2 66.116v-23.449c0-4.713 3.821-8.534 8.533-8.534 4.713 0 8.534 3.821 8.534 8.534v25.6h17.066v-25.6c0-4.713 3.821-8.534 8.534-8.534 4.712 0 8.533 3.821 8.533 8.534v25.6h17.067v-25.6c0-4.713 3.82-8.534 8.533-8.534 4.713 0 8.533 3.821 8.533 8.534v25.6H281.6v-25.6c0-4.713 3.821-8.534 8.533-8.534 4.713 0 8.534 3.821 8.534 8.534v25.6h17.066v-25.6c0-4.713 3.821-8.534 8.534-8.534 4.713 0 8.533 3.821 8.533 8.534v23.449c29.444-7.578 51.2-34.307 51.2-66.116v-128h-68.267v59.733c0 4.713-3.82 8.534-8.533 8.534-4.713 0-8.533-3.821-8.533-8.534V229.8h-34.134v25.6h4.267c4.713 0 8.533 3.82 8.533 8.533 0 4.713-3.82 8.534-8.533 8.534h-25.6c-4.713 0-8.533-3.821-8.533-8.534 0-4.713 3.82-8.533 8.533-8.533h4.267v-25.6h-34.134v34.133c0 4.713-3.82 8.534-8.533 8.534-4.713 0-8.533-3.821-8.533-8.534V229.8H128Zm128 59.733c-4.713 0-8.533 3.821-8.533 8.534v68.266c0 4.713 3.82 8.534 8.533 8.534 4.713 0 8.533-3.821 8.533-8.534v-68.266c0-4.713-3.82-8.534-8.533-8.534ZM213.333 306.6h4.267c4.713 0 8.533-3.821 8.533-8.533 0-4.713-3.82-8.534-8.533-8.534H192c-4.713 0-8.533 3.821-8.533 8.534 0 4.712 3.82 8.533 8.533 8.533h4.267v59.733c0 4.713 3.82 8.534 8.533 8.534 4.713 0 8.533-3.821 8.533-8.534V306.6ZM320 332.2h-4.267v34.133c0 4.713-3.82 8.534-8.533 8.534-4.713 0-8.533-3.821-8.533-8.534V332.2H294.4c-4.713 0-8.533-3.821-8.533-8.533 0-4.713 3.82-8.534 8.533-8.534H320c4.713 0 8.533 3.821 8.533 8.534 0 4.712-3.82 8.533-8.533 8.533Z" clip-rule="evenodd"/>
  </g>
  <defs>
    <clipPath id="a">
      <rect width="512" height="512" fill="#fff" rx="38"/>
    </clipPath>
  </defs>
</svg>
