<svg width="108" height="109" viewBox="0 0 108 109" fill="none" xmlns="http://www.w3.org/2000/svg">
<path d="M28.26 41.2001C28.26 39.8144 29.3833 38.691 30.769 38.691H77.1952C78.5809 38.691 79.7043 39.8144 79.7043 41.2001V68.8048C79.7043 70.1905 78.5809 71.3139 77.1952 71.3139H70.7946V73.8239H77.1952C79.9672 73.8239 82.2143 71.5768 82.2143 68.8048V41.2001C82.2143 38.4281 79.9672 36.181 77.1952 36.181H30.769C27.9971 36.181 25.75 38.4281 25.75 41.2001V68.8048C25.75 71.5768 27.9971 73.8239 30.769 73.8239H37.5446V71.3139H30.769C29.3833 71.3139 28.26 70.1905 28.26 68.8048V41.2001Z" fill="black"/>
<path d="M55.9536 43.0584C55.9536 42.7119 56.2345 42.431 56.581 42.431H59.0905C59.437 42.431 59.7179 42.7119 59.7179 43.0584V44.3132C59.7179 44.6597 59.437 44.9406 59.0905 44.9406H56.581C56.2345 44.9406 55.9536 44.6597 55.9536 44.3132V43.0584Z" fill="black"/>
<path d="M41.5239 43.0584C41.1774 43.0584 40.8965 43.3393 40.8965 43.6858V44.9406C40.8965 45.287 41.1774 45.5679 41.5239 45.5679H44.0334C44.3799 45.5679 44.6608 45.287 44.6608 44.9406V43.6858C44.6608 43.3393 44.3799 43.0584 44.0334 43.0584H41.5239Z" fill="black"/>
<path d="M49.0524 43.6858C48.7059 43.6858 48.4251 43.9667 48.4251 44.3132V45.5679C48.4251 45.9144 48.7059 46.1953 49.0524 46.1953H51.562C51.9085 46.1953 52.1893 45.9144 52.1893 45.5679V44.3132C52.1893 43.9667 51.9085 43.6858 51.562 43.6858H49.0524Z" fill="black"/>
<path d="M64.1096 43.0584C63.7631 43.0584 63.4822 43.3393 63.4822 43.6858V44.9406C63.4822 45.287 63.7631 45.5679 64.1096 45.5679H66.6191C66.9656 45.5679 67.2465 45.287 67.2465 44.9406V43.6858C67.2465 43.3393 66.9656 43.0584 66.6191 43.0584H64.1096Z" fill="black"/>
<path fill-rule="evenodd" clip-rule="evenodd" d="M40.8964 43.6858C40.5499 43.6858 40.269 43.9667 40.269 44.3132V48.7048H39.9554C39.2624 48.7048 38.7006 49.2666 38.7006 49.9596C38.7006 50.6526 39.2624 51.2144 39.9554 51.2144H68.8149C69.5079 51.2144 70.0696 50.6526 70.0696 49.9596C70.0696 49.2666 69.5079 48.7048 68.8149 48.7048H67.8738V44.3132C67.8738 43.9667 67.5929 43.6858 67.2464 43.6858H63.4821C63.1357 43.6858 62.8548 43.9667 62.8548 44.3132V48.7048H60.3452V44.3132C60.3452 43.9667 60.0644 43.6858 59.7179 43.6858H55.9536C55.6071 43.6858 55.3262 43.9667 55.3262 44.3132V48.7048H52.8167V44.3132C52.8167 43.9667 52.5358 43.6858 52.1893 43.6858H48.425C48.0785 43.6858 47.7976 43.9667 47.7976 44.3132V48.7048H45.2881V44.3132C45.2881 43.9667 45.0072 43.6858 44.6607 43.6858H40.8964ZM44.0333 46.1953C44.0333 46.8883 43.4716 47.4501 42.7786 47.4501C42.0856 47.4501 41.5238 46.8883 41.5238 46.1953C41.5238 45.5023 42.0856 44.9406 42.7786 44.9406C43.4716 44.9406 44.0333 45.5023 44.0333 46.1953ZM50.3071 47.4501C51.0001 47.4501 51.5619 46.8883 51.5619 46.1953C51.5619 45.5023 51.0001 44.9406 50.3071 44.9406C49.6142 44.9406 49.0524 45.5023 49.0524 46.1953C49.0524 46.8883 49.6142 47.4501 50.3071 47.4501ZM59.0905 46.1953C59.0905 46.8883 58.5287 47.4501 57.8357 47.4501C57.1427 47.4501 56.581 46.8883 56.581 46.1953C56.581 45.5023 57.1427 44.9406 57.8357 44.9406C58.5287 44.9406 59.0905 45.5023 59.0905 46.1953ZM65.3643 47.4501C66.0573 47.4501 66.619 46.8883 66.619 46.1953C66.619 45.5023 66.0573 44.9406 65.3643 44.9406C64.6713 44.9406 64.1095 45.5023 64.1095 46.1953C64.1095 46.8883 64.6713 47.4501 65.3643 47.4501Z" fill="black"/>
<path fill-rule="evenodd" clip-rule="evenodd" d="M35.25 53.7239V72.5453C35.25 77.2227 38.4491 81.1528 42.7786 82.2672V78.8191C42.7786 78.1261 43.3403 77.5644 44.0333 77.5644C44.7263 77.5644 45.2881 78.1261 45.2881 78.8191L45.2881 82.5834H47.7976V78.8191C47.7976 78.1261 48.3594 77.5644 49.0524 77.5644C49.7454 77.5644 50.3071 78.1261 50.3071 78.8191V82.5834H52.8167V78.8191C52.8167 78.1261 53.3784 77.5644 54.0714 77.5644C54.7644 77.5644 55.3262 78.1261 55.3262 78.8191V82.5834H57.8357V78.8191C57.8357 78.1261 58.3975 77.5644 59.0905 77.5644C59.7835 77.5644 60.3452 78.1261 60.3452 78.8191V82.5834H62.8548V78.8191C62.8548 78.1261 63.4165 77.5644 64.1095 77.5644C64.8025 77.5644 65.3643 78.1261 65.3643 78.8191V82.2672C69.6938 81.1528 72.8929 77.2227 72.8929 72.5453V53.7239H62.8548V62.5072C62.8548 63.2002 62.293 63.762 61.6 63.762C60.907 63.762 60.3452 63.2002 60.3452 62.5072V53.7239H55.3262V57.4882H55.9536C56.6466 57.4882 57.2083 58.0499 57.2083 58.7429C57.2083 59.4359 56.6466 59.9977 55.9536 59.9977H52.1893C51.4963 59.9977 50.9345 59.4359 50.9345 58.7429C50.9345 58.0499 51.4963 57.4882 52.1893 57.4882H52.8167V53.7239H47.7976V58.7429C47.7976 59.4359 47.2358 59.9977 46.5429 59.9977C45.8499 59.9977 45.2881 59.4359 45.2881 58.7429V53.7239H35.25ZM54.0714 62.5072C53.3784 62.5072 52.8167 63.069 52.8167 63.762V73.8001C52.8167 74.4931 53.3784 75.0548 54.0714 75.0548C54.7644 75.0548 55.3262 74.4931 55.3262 73.8001V63.762C55.3262 63.069 54.7644 62.5072 54.0714 62.5072ZM47.7976 65.0167H48.425C49.118 65.0167 49.6798 64.455 49.6798 63.762C49.6798 63.069 49.118 62.5072 48.425 62.5072H44.6607C43.9677 62.5072 43.406 63.069 43.406 63.762C43.406 64.455 43.9677 65.0167 44.6607 65.0167H45.2881V73.8001C45.2881 74.4931 45.8499 75.0548 46.5429 75.0548C47.2358 75.0548 47.7976 74.4931 47.7976 73.8001V65.0167ZM63.4821 68.781H62.8548V73.8001C62.8548 74.4931 62.293 75.0548 61.6 75.0548C60.907 75.0548 60.3452 74.4931 60.3452 73.8001V68.781H59.7179C59.0249 68.781 58.4631 68.2193 58.4631 67.5263C58.4631 66.8333 59.0249 66.2715 59.7179 66.2715H63.4821C64.1751 66.2715 64.7369 66.8333 64.7369 67.5263C64.7369 68.2193 64.1751 68.781 63.4821 68.781Z" fill="black"/>
<path d="M22.2548 51.181C21.5618 51.181 21 51.7428 21 52.4358V57.4548C21 58.1478 21.5618 58.7096 22.2548 58.7096C22.9477 58.7096 23.5095 58.1478 23.5095 57.4548V52.4358C23.5095 51.7428 22.9477 51.181 22.2548 51.181Z" fill="#111417"/>
<path d="M85.7548 51.181C85.0618 51.181 84.5 51.7428 84.5 52.4358V57.4548C84.5 58.1478 85.0618 58.7096 85.7548 58.7096C86.4477 58.7096 87.0095 58.1478 87.0095 57.4548V52.4358C87.0095 51.7428 86.4477 51.181 85.7548 51.181Z" fill="#111417"/>
<path d="M22.2548 87.9406C22.9477 87.9406 23.5095 87.3788 23.5095 86.6858C23.5095 85.9928 22.9477 85.431 22.2548 85.431C21.5618 85.431 21 85.9928 21 86.6858C21 87.3788 21.5618 87.9406 22.2548 87.9406Z" fill="#111417"/>
<path d="M85.7548 87.9406C86.4477 87.9406 87.0095 87.3788 87.0095 86.6858C87.0095 85.9928 86.4477 85.431 85.7548 85.431C85.0618 85.431 84.5 85.9928 84.5 86.6858C84.5 87.3788 85.0618 87.9406 85.7548 87.9406Z" fill="#111417"/>
<path d="M22.2548 24.4406C22.9477 24.4406 23.5095 23.8788 23.5095 23.1858C23.5095 22.4928 22.9477 21.931 22.2548 21.931C21.5618 21.931 21 22.4928 21 23.1858C21 23.8788 21.5618 24.4406 22.2548 24.4406Z" fill="#111417"/>
<path d="M85.7548 24.4406C86.4477 24.4406 87.0095 23.8788 87.0095 23.1858C87.0095 22.4928 86.4477 21.931 85.7548 21.931C85.0618 21.931 84.5 22.4928 84.5 23.1858C84.5 23.8788 85.0618 24.4406 85.7548 24.4406Z" fill="#111417"/>
</svg>
